Coordinates
version=1
nRows=37
nColumns=38
inDegrees=no

Units are S.I. units (second, meters, Newtons, ...)
If the header above contains a line with 'inDegrees', this indicates whether rotational values are in degrees (yes) or radians (no).

endheader
time	pelvis_tilt	pelvis_list	pelvis_rotation	pelvis_tx	pelvis_ty	pelvis_tz	hip_flexion_r	hip_adduction_r	hip_rotation_r	knee_angle_r	ankle_angle_r	subtalar_angle_r	mtp_angle_r	hip_flexion_l	hip_adduction_l	hip_rotation_l	knee_angle_l	ankle_angle_l	subtalar_angle_l	mtp_angle_l	lumbar_extension	lumbar_bending	lumbar_rotation	arm_flex_r	arm_add_r	arm_rot_r	elbow_flex_r	pro_sup_r	wrist_flex_r	wrist_dev_r	arm_flex_l	arm_add_l	arm_rot_l	elbow_flex_l	pro_sup_l	wrist_flex_l	wrist_dev_l
0	2.99224	1.44051	-1.18727	0.775905	-0.577454	1.04374	0.0646715	0.0403214	-0.267605	0.347688	-0.00878215	0	0	-0.102946	-0.188195	-0.288853	1.0837	-0.253545	0	0	-0.677821	0.215927	-0.0726212	-0.15041	-0.427627	0.162437	0.988028	0.997839	0	0	-0.0129391	-0.463157	0.175755	1.01006	1.35591	0	0
0.01	3.00564	1.44231	-1.20953	0.776255	-0.56494	1.04548	0.0513456	0.0426792	-0.25206	0.343337	-0.00634725	0	0	-0.0760157	-0.196374	-0.313425	1.1154	-0.216675	0	0	-0.658818	0.20706	-0.0971237	-0.127324	-0.421039	0.185306	0.964451	1.00779	0	0	-0.0428609	-0.462168	0.160234	0.995881	1.35459	0	0
0.02	3.05353	1.44347	-1.26122	0.775946	-0.552465	1.04796	0.0329864	0.0394965	-0.243944	0.334248	-0.00663351	0	0	-0.0514469	-0.172058	-0.279717	1.12698	-0.171027	0	0	-0.689249	0.196038	-0.0458682	-0.164457	-0.422875	0.131118	0.998649	1.00811	0	0	-0.000863328	-0.459683	0.202426	0.99451	1.36568	0	0
0.03	3.09639	1.4423	-1.30999	0.77605	-0.538899	1.05051	0.012099	0.0380879	-0.240563	0.325435	-0.00690339	0	0	-0.0327081	-0.173077	-0.295374	1.13651	-0.149879	0	0	-0.671837	0.190758	-0.0701423	-0.148044	-0.418179	0.147808	0.979718	1.01867	0	0	-0.0247988	-0.454853	0.192113	0.968436	1.35892	0	0
0.04	-3.12685	1.42383	-1.37323	0.775592	-0.527097	1.05387	-0.0294757	0.0370696	-0.239507	0.310763	-0.00819681	0	0	-0.031733	-0.158801	-0.27922	1.13492	-0.122854	0	0	-0.811664	0.15818	0.0500175	-0.217539	-0.426024	0.0438262	1.08178	0.97289	0	0	0.045162	-0.464205	0.214845	1.07781	1.40288	0	0
0.05	-3.02437	1.41183	-1.47496	0.776619	-0.514621	1.05697	-0.0706065	0.0285143	-0.247491	0.278777	0.0170857	0	0	-0.0240271	-0.143247	-0.273258	1.12785	-0.106038	0	0	-0.674971	0.193944	-0.122786	-0.135004	-0.426676	0.167433	1.00211	1.01229	0	0	-0.0576641	-0.442402	0.173208	0.916892	1.33475	0	0
0.06	-3.06799	1.43207	-1.43978	0.774721	-0.500285	1.0582	-0.0694165	0.0344286	-0.242638	0.263007	0.0105911	0	0	0.0183648	-0.144829	-0.277975	1.12143	-0.0975759	0	0	-0.679151	0.165294	-0.095245	-0.116008	-0.423235	0.195049	0.960979	0.998103	0	0	-0.071105	-0.444304	0.148425	0.958475	1.34908	0	0
0.07	-3.06099	1.41915	-1.4522	0.773867	-0.488312	1.06086	-0.0997246	0.0360086	-0.247344	0.260152	-0.0250485	0	0	0.0246466	-0.146331	-0.287756	1.10828	-0.0904396	0	0	-0.736378	0.157939	-0.0499259	-0.144404	-0.434574	0.153376	1.01146	0.989824	0	0	-0.0517365	-0.442333	0.147947	0.993717	1.35735	0	0
0.08	-3.03849	1.41229	-1.47871	0.773319	-0.475752	1.063	-0.129594	0.0360673	-0.250865	0.241632	-0.0325871	0	0	0.0362112	-0.14632	-0.301292	1.08984	-0.0861785	0	0	-0.748688	0.155161	-0.0516395	-0.146516	-0.436552	0.145387	1.02586	0.993283	0	0	-0.0604074	-0.43786	0.137638	0.992587	1.34847	0	0
0.09	-2.99196	1.41043	-1.5308	0.773497	-0.462411	1.06471	-0.151767	0.030474	-0.255104	0.229986	-0.0382962	0	0	0.0498463	-0.147361	-0.330473	1.0651	-0.0843815	0	0	-0.726714	0.158263	-0.101461	-0.118904	-0.432116	0.171761	1.01408	1.02171	0	0	-0.100771	-0.425625	0.101189	0.960762	1.32252	0	0
0.1	-2.96952	1.40398	-1.56106	0.773446	-0.449688	1.06647	-0.178575	0.0280352	-0.257391	0.213782	-0.0456384	0	0	0.0569636	-0.153365	-0.367463	1.03624	-0.0835791	0	0	-0.722579	0.13786	-0.183765	-0.020764	-0.427437	0.308227	0.94816	1.01136	0	0	-0.202208	-0.41017	-0.0324798	1.00268	1.32962	0	0
0.11	-2.99275	1.42206	-1.54962	0.772074	-0.435618	1.06681	-0.178845	0.0307915	-0.24745	0.197747	-0.0608369	0	0	0.0885087	-0.161222	-0.400803	1.00354	-0.0791559	0	0	-0.674374	0.131296	-0.0281671	-0.171214	-0.434267	0.142298	0.986459	0.998167	0	0	-0.0438734	-0.420016	0.213115	0.88303	1.26464	0	0
0.12	-2.98505	1.42605	-1.56401	0.771262	-0.422663	1.0676	-0.195123	0.0297579	-0.253833	0.182549	-0.0663347	0	0	0.105449	-0.161333	-0.424699	0.964827	-0.0770869	0	0	-0.672008	0.120132	-0.0200157	-0.169966	-0.434403	0.145089	0.980315	0.99913	0	0	-0.0486328	-0.416672	0.206089	0.882568	1.25468	0	0
0.13	-2.96769	1.4225	-1.5881	0.770772	-0.410288	1.0684	-0.218708	0.0272246	-0.257391	0.168666	-0.0682527	0	0	0.112915	-0.159234	-0.44964	0.921169	-0.0751513	0	0	-0.678465	0.111923	-0.0244652	-0.161182	-0.44158	0.161459	0.984195	0.987937	0	0	-0.06384	-0.410919	0.177812	0.887804	1.25272	0	0
0.14	-2.97633	1.41488	-1.58882	0.769963	-0.398306	1.06913	-0.246468	0.0273277	-0.258822	0.152187	-0.0787454	0	0	0.113951	-0.16069	-0.479276	0.874321	-0.0757782	0	0	-0.703464	0.113993	0.055318	-0.242664	-0.445423	0.0578252	1.04903	0.984095	0	0	0.0114453	-0.403619	0.277083	0.852264	1.21883	0	0
0.15	-2.85949	1.43776	-1.71521	0.769898	-0.384594	1.06612	-0.233731	-0.00363007	-0.2678	0.159612	-0.0703847	0	0	0.14966	-0.141867	-0.503093	0.826433	-0.0789007	0	0	-0.654095	0.0881099	-0.0213303	-0.168105	-0.445118	0.158254	0.990663	0.989054	0	0	-0.0753791	-0.403302	0.172447	0.869538	1.21715	0	0
0.16	-2.94537	1.42208	-1.62969	0.76873	-0.372734	1.06871	-0.271298	0.021556	-0.25973	0.137788	-0.0768018	0	0	0.139947	-0.148653	-0.518563	0.767722	-0.0855086	0	0	-0.664788	0.102134	-0.00144188	-0.185293	-0.451067	0.134851	1.00371	0.999333	0	0	-0.0532849	-0.391675	0.194926	0.838182	1.20138	0	0
0.17	-2.95564	1.42691	-1.62592	0.76772	-0.360156	1.06805	-0.279795	0.0214708	-0.259103	0.134628	-0.0813437	0	0	0.152635	-0.144022	-0.536724	0.709902	-0.0948972	0	0	-0.668344	0.0939796	0.00152682	-0.176361	-0.453883	0.14274	1.00087	0.994354	0	0	-0.0625413	-0.390124	0.177797	0.848798	1.19341	0	0
0.18	-2.95843	1.42914	-1.62822	0.766956	-0.347715	1.06721	-0.292079	0.0211363	-0.260612	0.127403	-0.086358	0	0	0.161521	-0.136013	-0.5509	0.648305	-0.109103	0	0	-0.686569	0.0991384	-0.0440725	-0.131357	-0.464041	0.183418	1.01137	1.00398	0	0	-0.110168	-0.375671	0.0886415	0.872563	1.19862	0	0
0.19	-2.95676	1.43184	-1.63404	0.766289	-0.335287	1.066	-0.305359	0.0208795	-0.260205	0.111868	-0.094317	0	0	0.169834	-0.124829	-0.558749	0.583229	-0.121378	0	0	-0.699487	0.112548	-0.0893915	-0.0988255	-0.463699	0.192566	1.03022	1.05492	0	0	-0.144256	-0.356761	0.0210727	0.873867	1.19565	0	0
0.2	-2.86236	1.3677	-1.73011	0.767546	-0.325974	1.06317	-0.394717	-0.019083	-0.332356	0.117525	-0.069683	0	0	0.108851	-0.0939826	-0.585225	0.524922	-0.12064	0	0	-0.553828	0.0721596	0.471146	-0.614079	-0.291006	-0.29533	1.06412	0.930482	0	0	0.466475	-0.210981	1.5708	0.361437	0.377855	0	0
0.21	-2.80372	1.45334	-1.79698	0.765335	-0.309427	1.05896	-0.317414	-0.0155617	-0.294866	0.113603	-0.0711119	0	0	0.202454	-0.0750871	-0.547312	0.441881	-0.1356	0	0	-0.662186	0.109709	-0.124705	-0.0861314	-0.480037	0.222571	1.05028	1.03158	0	0	-0.159773	-0.339621	-0.00370317	0.829468	1.17723	0	0
0.22	-2.80514	1.4597	-1.79901	0.764332	-0.296766	1.05646	-0.324352	-0.0164866	-0.28949	0.113301	-0.0673329	0	0	0.210374	-0.0584301	-0.531336	0.368246	-0.138164	0	0	-0.657806	0.100739	-0.118074	-0.0827389	-0.481242	0.230852	1.04343	1.02326	0	0	-0.163037	-0.341579	-0.00939094	0.837076	1.17813	0	0
0.23	-2.80917	1.46743	-1.79876	0.76336	-0.284063	1.05355	-0.329941	-0.0168105	-0.283185	0.113028	-0.0632597	0	0	0.218469	-0.0418894	-0.508622	0.295296	-0.138447	0	0	-0.651548	0.0926761	-0.109317	-0.0815395	-0.482805	0.237164	1.03777	1.01431	0	0	-0.164357	-0.344	-0.0116696	0.84303	1.18127	0	0
0.24	-2.80973	1.47808	-1.80021	0.762294	-0.2713	1.05017	-0.333335	-0.0158865	-0.280941	0.111135	-0.0581655	0	0	0.226478	-0.0224816	-0.464058	0.216521	-0.140299	0	0	-0.639529	0.0854913	-0.107643	-0.0719726	-0.48557	0.25886	1.02531	0.996273	0	0	-0.170411	-0.346359	-0.0185952	0.848355	1.18468	0	0
0.25	-2.81995	1.48845	-1.79235	0.761307	-0.2583	1.04656	-0.337497	-0.0141224	-0.280458	0.109012	-0.0539879	0	0	0.231579	-0.00576696	-0.416166	0.140224	-0.141672	0	0	-0.628301	0.0799382	-0.100958	-0.070405	-0.486289	0.266997	1.01812	0.985229	0	0	-0.172192	-0.349376	-0.0192809	0.851088	1.18892	0	0
0.26	-2.84054	1.49796	-1.77386	0.760336	-0.245043	1.04283	-0.342488	-0.0118471	-0.279721	0.108132	-0.0498133	0	0	0.233907	0.00808895	-0.367245	0.067722	-0.144092	0	0	-0.617291	0.0753515	-0.0941997	-0.0700771	-0.486954	0.274476	1.01186	0.973865	0	0	-0.174016	-0.352618	-0.0194891	0.853055	1.19357	0	0
0.27	-2.87545	1.50703	-1.74167	0.759446	-0.231453	1.039	-0.347214	-0.00950587	-0.2774	0.109797	-0.0449374	0	0	0.235754	0.0180095	-0.322827	0.00379933	-0.13809	0	0	-0.60571	0.0706396	-0.0853266	-0.0719475	-0.48639	0.279072	1.00478	0.960999	0	0	-0.174985	-0.356218	-0.0181574	0.853884	1.19963	0	0
0.28	-2.92761	1.5097	-1.69261	0.758549	-0.217692	1.03565	-0.358909	-0.00792786	-0.276907	0.111028	-0.0473989	0	0	0.241938	0.0209153	-0.322558	0	-0.14159	0	0	-0.603089	0.0682959	-0.0778758	-0.080322	-0.478622	0.259568	1.00607	0.987089	0	0	-0.175271	-0.359529	-0.0161477	0.854996	1.19612	0	0
0.29	-2.98153	1.51611	-1.64173	0.757624	-0.203672	1.03211	-0.364382	-0.00701083	-0.2745	0.116992	-0.0434299	0	0	0.252304	0.0232894	-0.316387	0	-0.122273	0	0	-0.593138	0.0632462	-0.0717996	-0.0768275	-0.481555	0.277808	0.997316	0.954651	0	0	-0.178454	-0.36246	-0.0192618	0.855539	1.20327	0	0
0.3	-3.02931	1.51881	-1.5967	0.756643	-0.189593	1.02909	-0.372855	-0.00770667	-0.272525	0.124332	-0.0443707	0	0	0.259038	0.0261736	-0.311399	0	-0.112568	0	0	-0.588606	0.0590708	-0.0653944	-0.0794717	-0.477535	0.27536	0.993026	0.953182	0	0	-0.178581	-0.365707	-0.0192352	0.854412	1.20468	0	0
0.31	-3.06141	1.51938	-1.56743	0.755667	-0.17533	1.02656	-0.382686	-0.0100513	-0.26926	0.133417	-0.0462353	0	0	0.263314	0.0297194	-0.305646	0	-0.106136	0	0	-0.586352	0.0541992	-0.0592963	-0.0822691	-0.472401	0.271553	0.98872	0.954189	0	0	-0.177593	-0.368886	-0.0191545	0.851801	1.20524	0	0
0.32	-3.08297	1.51868	-1.5487	0.754744	-0.160788	1.02444	-0.393393	-0.0133428	-0.264541	0.143154	-0.0486639	0	0	0.266395	0.0329532	-0.300404	0	-0.103996	0	0	-0.58528	0.0489506	-0.0551369	-0.0824682	-0.468094	0.273589	0.983454	0.95081	0	0	-0.177658	-0.371903	-0.0208953	0.848485	1.20487	0	0
0.33	-3.09243	1.51716	-1.54237	0.753884	-0.145858	1.02264	-0.404072	-0.0179814	-0.25725	0.155045	-0.0535781	0	0	0.267771	0.0358034	-0.293333	0	-0.103662	0	0	-0.585225	0.0425575	-0.0510007	-0.0822843	-0.462	0.275166	0.97597	0.946352	0	0	-0.178032	-0.375334	-0.02292	0.845046	1.20439	0	0
0.34	-3.08671	1.51522	-1.55286	0.753181	-0.130399	1.02116	-0.41439	-0.0247134	-0.244257	0.168313	-0.0889676	0	0	0.267604	0.0378811	-0.288	0	-0.111889	0	0	-0.58286	0.0325251	-0.0507173	-0.0716217	-0.457837	0.299009	0.957547	0.915009	0	0	-0.184949	-0.378651	-0.0319887	0.844458	1.20297	0	0
0.35	-3.08529	1.51154	-1.55752	0.752287	-0.114458	1.01985	-0.425633	-0.0309387	-0.234243	0.184185	-0.100465	0	0	0.269527	0.0371321	-0.293708	0.0336308	-0.112922	0	0	-0.5831	0.0259938	-0.0469438	-0.0730259	-0.449676	0.298913	0.947748	0.912494	0	0	-0.186603	-0.381795	-0.0338363	0.839713	1.20128	0	0
0.36	-3.09062	1.50722	-1.55757	0.751502	-0.0979727	1.01877	-0.434853	-0.0380934	-0.220432	0.203584	-0.123615	0	0	0.271122	0.0331993	-0.31188	0.0816811	-0.113595	0	0	-0.582609	0.0189597	-0.0425635	-0.0738624	-0.440482	0.299261	0.935362	0.911127	0	0	-0.189947	-0.384442	-0.0361516	0.834106	1.19881	0	0
